<?xml version="1.0" encoding="UTF-8"?>
<svg xmlns="http://www.w3.org/2000/svg" viewBox="-580 -70 3160 2140" role="img" aria-labelledby="title-h desc-h">
  <title id="title-h">Clear space unit H around the Twilic wordmark</title>
  <desc id="desc-h">Exclusion zone equal to one times the wordmark ink height H on every side of the letterforms.</desc>
  <defs>
    <pattern id="hatch-exclusion" width="20" height="20" patternUnits="userSpaceOnUse" patternTransform="rotate(45)">
      <rect width="20" height="20" fill="#FFF5F0"/>
      <line x1="0" y1="0" x2="0" y2="20" stroke="#E85D04" stroke-width="2.5" stroke-opacity="0.35"/>
    </pattern>
  </defs>

  <rect x="-580" y="-70" width="3160" height="2140" fill="#FAFAFA"/>

  <!-- title -->
  <text x="1000" y="75" text-anchor="middle" font-family="system-ui,sans-serif" font-size="40" fill="#E85D04" font-weight="600">Exclusion zone (1×H each side)</text>

  <!-- exclusion + ink + wordmark -->
  <rect x="-380" y="130" width="2760" height="1740" fill="url(#hatch-exclusion)" stroke="#E85D04" stroke-width="3" stroke-dasharray="14 10"/>
  <rect x="200" y="710" width="1600" height="580" fill="none" stroke="#36A9F8" stroke-width="4" stroke-dasharray="18 12"/>
  <path d="M107.8 26.6c4.9.5 8.6-4 8.9-8.9.2-3.5-2.2-7.6-7-7.6-5.6.3-8.1 5.9-8.1 9.7 0 3.1 2.3 6.6 6.2 6.8Zm47.7 0c4.9.5 8.8-4 9.5-8.9.6-4.4-2.9-7.7-6.5-7.7-5.4.1-8.5 5.1-8.5 9.6-.1 3.3 2.1 6.7 5.5 7Zm39.1 17.7c-1.5 1.3-3.4 9.8-12.2 10.8-5 .5-8.2-2.4-8.2-8.1 0-5.4 3.9-11.6 8.4-11.5 3.2.1 2.7 4.4-.9 5.3l-1.7.2c-1.9-.4-4.4 7.5 3.1 7.5 4-.2 8.1-5 8.2-10.8 0-5.4-3.6-8.9-9.1-8.9-9.6-.2-17.6 8.8-21.3 17.2-1.5 3.4-4.3 7.3-7.3 7.3-1.1 0-2.2-.8-2.2-2.3 0-4.6 5.8-11.5 5.8-15.4 0-2.7-2-5.6-5.6-5.6-3.2-.1-5.4 1.9-7 4.4-2.2 3.2-4.1 7.5-5.9 12.1-1.3 2.9-4.3 6.5-7.7 6.5-2.5 0-4.1-2.5-4.1-7 7.8-6.9 19.8-22.6 19.8-34.4-.1-4.9-2.8-8.9-7.8-8.5-10.3.8-22 20.5-27.4 44.5-1.1 2.4-3.6 5.8-6.4 5.8-1.4 0-2.1-1-2.1-2.6 0-4.6 5.6-11.7 5.6-15.2 0-2.6-2.2-5.6-5.7-5.6-4.4-.1-6.8 4-9.4 9.4-1 2.2-3 4.1-5.6 4.4.5-2.3.8-4.4.8-6.2-.1-4.5-2.2-9.1-7-9-5.6-.1-9.7 6.4-9.9 11.4-.1 3.9 1.6 7.1 4.7 9-1.3 2-3.1 4.1-5.8 4.3-3.7 0-4.2-4.3-3.2-9.2.7-3-1-6.2-4.5-6.2-2.3 0-4 1.1-5 3.2-2.1 4.5-4.5 12.2-7.5 12.2-1.4 0-2-1.2-1.8-3.3.7-4.6 4.9-10.9 4.9-14.5 0-3-1.9-5.9-5.6-5.9-5.9 0-8.8 6.3-12.9 17-1 2.5-3.5 6.5-6.4 6.5-1.7 0-2.5-1.4-2.3-3.6.8-6.5 6.6-17.9 10.8-26.8 7.4.8 16.3 3.4 28.5 3.6 11.8.1 19.7-4.7 19.7-13.3 0-5.1-4.2-10.7-10.1-10.7-.4 4.4-5.9 9.8-12.8 11.4-6.1 1.3-14.1.7-21.1-.8.2-1.2.3-1.8.3-2.9-.1-3.5-2.8-6.9-7.1-6.9-3.5.3-4.2 2.5-5.5 5.4-3.1-.6-6.2-1.1-10.7-1-10.9.1-15.9 7-15.9 14.2.1 5 3.6 10 9.4 10.2 1.2 0 2.5-.2 3-.5.2-.2.5-.4.5-.4-.8-3.8 2.2-8.5 8.5-9.3-4.2 9.2-13.9 26-13.9 39.9 0 4.5 2.4 11.3 9.4 11.4 5.1.1 9.2-3.3 12.8-9.3.5 5.2 3.8 9.3 8.2 9.4 5.2 0 9.1-4.7 13.1-11.9.9 6.9 4.5 11.8 9.7 11.9 8.7 0 16.4-9.2 22.2-22.4 1-.1 2.5-.2 4-.7-1.5 4.6-2.5 9.1-2.5 11.6.2 6.3 3.6 11.3 9.7 11.4 5.5.1 10.4-3.5 14.6-10.9 1 6 4.8 10.8 10.5 10.9 4.4 0 9-2.9 13.4-8.8.9 4.9 4.5 8.8 9.5 8.9 4.9.1 9.8-2.6 14.5-10.6 1.5 6.6 5.8 10.5 13 10.5 5 0 9.5-1.6 14.4-6.1 6.9-5.9 10.4-15.4 11.4-20.8.6-2.4-2-3.2-3.3-1.8ZM139 12.2c4.1-1.5-1.3 12.3-11 24.3 1.4-9.1 7.5-23 11-24.3Z" style="fill:#36A9F8;fill-rule:nonzero" transform="matrix(8.18462 0 0 8.18462 179.538 691.429)"/>

  <!-- dimensions: top -->
  <line x1="-380" y1="130" x2="200" y2="130" stroke="#E85D04" stroke-width="4"/>
  <polygon points="-368,124 -368,136 -380,130" fill="#E85D04"/>
  <polygon points="188,124 188,136 200,130" fill="#E85D04"/>
  <text x="-90" y="106" text-anchor="middle" font-family="system-ui,sans-serif" font-size="42" fill="#E85D04" font-weight="600">1×H</text>

  <!-- dimensions: left (upper) -->
  <line x1="-380" y1="130" x2="-380" y2="710" stroke="#E85D04" stroke-width="4"/>
  <polygon points="-386,142 -374,142 -380,130" fill="#E85D04"/>
  <polygon points="-386,698 -374,698 -380,710" fill="#E85D04"/>
  <text x="-400" y="426" text-anchor="end" font-family="system-ui,sans-serif" font-size="42" fill="#E85D04" font-weight="600">1×H</text>

  <!-- dimensions: left (lower, in margin) -->
  <line x1="-100" y1="1290" x2="-100" y2="1870" stroke="#E85D04" stroke-width="4"/>
  <polygon points="-106,1302 -94,1302 -100,1290" fill="#E85D04"/>
  <polygon points="-106,1858 -94,1858 -100,1870" fill="#E85D04"/>
  <text x="-120" y="1586" text-anchor="end" font-family="system-ui,sans-serif" font-size="42" fill="#E85D04" font-weight="600">1×H</text>

  <!-- dimensions: right (H = ink height, beside ink bounds) -->
  <line x1="1820" y1="710" x2="1820" y2="1290" stroke="#E85D04" stroke-width="4"/>
  <polygon points="1814,722 1826,722 1820,710" fill="#E85D04"/>
  <polygon points="1814,1278 1826,1278 1820,1290" fill="#E85D04"/>
  <text x="1840" y="1006" text-anchor="start" font-family="system-ui,sans-serif" font-size="42" fill="#E85D04" font-weight="600">H</text>

  <!-- dimensions: right (lower margin) -->
  <line x1="1800" y1="1680" x2="2380" y2="1680" stroke="#E85D04" stroke-width="4"/>
  <polygon points="1812,1674 1812,1686 1800,1680" fill="#E85D04"/>
  <polygon points="2368,1674 2368,1686 2380,1680" fill="#E85D04"/>
  <text x="2090" y="1652" text-anchor="middle" font-family="system-ui,sans-serif" font-size="42" fill="#E85D04" font-weight="600">1×H</text>

  <!-- legend (centered below diagram) -->
  <g font-family="system-ui,sans-serif" font-size="30" fill="#666">
    <rect x="800" y="1906" width="16" height="16" fill="none" stroke="#36A9F8" stroke-width="3" stroke-dasharray="5 4"/>
    <text x="824" y="1920">Ink bounds</text>
    <rect x="1040" y="1906" width="16" height="16" fill="url(#hatch-exclusion)" stroke="#E85D04" stroke-width="2"/>
    <text x="1064" y="1920">Exclusion zone</text>
  </g>

  <text x="1000" y="1995" text-anchor="middle" font-family="system-ui,sans-serif" font-size="34" fill="#666">H = wordmark ink height (580 px at 2000×2000 master)</text>
</svg>
